<?xml version="1.0" encoding="utf-8"?>
<!-- Generator: Adobe Illustrator 17.0.0, SVG Export Plug-In . SVG Version: 6.00 Build 0)  -->
<!DOCTYPE svg PUBLIC "-//W3C//DTD SVG 1.1//EN" "http://www.w3.org/Graphics/SVG/1.1/DTD/svg11.dtd">
<svg version="1.1" id="Layer_1" xmlns="http://www.w3.org/2000/svg" xmlns:xlink="http://www.w3.org/1999/xlink" x="0px" y="0px"
	 width="1260px" height="706px" viewBox="-9 10 1260 706" enable-background="new -9 10 1260 706" xml:space="preserve">
<polygon fill="#CCE2ED" points="9,41.57 27,51.96 27,31.18 "/>
<polygon fill="#FCD3C5" points="81,644.32 63,654.71 63,633.93 "/>
<polygon fill="#F27461" points="99,301.38 81,311.77 81,290.98 "/>
<polygon fill="#FEF1DA" points="225,103.92 207,114.32 207,93.53 "/>
<polygon fill="#D8DAED" points="225,478.05 207,488.44 207,467.65 "/>
<polygon fill="#CCE2ED" points="351,301.38 369,311.77 369,290.98 "/>
<polygon fill="#69BF70" points="423,654.71 441,665.11 441,644.32 "/>
<polygon fill="#CFE6D3" points="513,83.14 495,93.53 495,72.75 "/>
<polygon fill="#CCE2ED" points="585,457.26 567,467.65 567,446.87 "/>
<polygon fill="#FCD3C5" points="693,270.2 675,280.59 675,259.81 "/>
<polygon fill="#60A3D7" points="765,83.14 747,93.53 747,72.75 "/>
<polygon fill="#D8DAED" points="819,633.93 801,644.32 801,623.54 "/>
<polygon fill="#FEF1DA" points="819,446.87 837,457.26 837,436.48 "/>
<polygon fill="#D8DAED" points="945,290.98 927,301.38 927,280.59 "/>
<polygon fill="#FEF1DA" points="981,62.35 963,72.75 963,51.96 "/>
<polygon fill="#8686BF" points="1071,530.01 1053,540.4 1053,519.61 "/>
<polygon fill="#CFE6D3" points="1161,187.06 1143,197.45 1143,176.67 "/>
<polygon fill="#FEF1DA" points="1197,665.11 1179,675.5 1179,654.71 "/>
</svg>
